<mxfile host="app.diagrams.net" agent="Mozilla/5.0 (Macintosh; Intel Mac OS X 10.15; rv:142.0) Gecko/20100101 Firefox/142.0" version="28.0.6">
  <diagram name="Page-1" id="CB9T9kEnPtJwXwT0Bg88">
    <mxGraphModel dx="462" dy="242" grid="1" gridSize="10" guides="1" tooltips="1" connect="1" arrows="1" fold="1" page="1" pageScale="1" pageWidth="850" pageHeight="1100" math="0" shadow="0">
      <root>
        <mxCell id="0" />
        <mxCell id="1" parent="0" />
        <mxCell id="CHRsbbl_XghZ6bLJ6CwO-1" value="cli" style="rounded=1;whiteSpace=wrap;html=1;" vertex="1" parent="1">
          <mxGeometry x="160" y="100" width="40" height="60" as="geometry" />
        </mxCell>
        <mxCell id="CHRsbbl_XghZ6bLJ6CwO-2" value="disk" style="shape=cylinder3;whiteSpace=wrap;html=1;boundedLbl=1;backgroundOutline=1;size=15;fillColor=#fff2cc;strokeColor=#d6b656;" vertex="1" parent="1">
          <mxGeometry x="580" y="130" width="70" height="100" as="geometry" />
        </mxCell>
        <mxCell id="CHRsbbl_XghZ6bLJ6CwO-5" value="query&amp;nbsp;&lt;br&gt;translator" style="rounded=1;whiteSpace=wrap;html=1;" vertex="1" parent="1">
          <mxGeometry x="340" y="103" width="60" height="80" as="geometry" />
        </mxCell>
        <mxCell id="CHRsbbl_XghZ6bLJ6CwO-7" value="&lt;h1 style=&quot;margin-top: 0px;&quot;&gt;diy-database&lt;/h1&gt;&lt;p&gt;https://github.com/sptsway/diy-database&lt;br&gt;&lt;br&gt;&lt;/p&gt;" style="text;html=1;whiteSpace=wrap;overflow=hidden;rounded=0;" vertex="1" parent="1">
          <mxGeometry x="3" y="1" width="237" height="120" as="geometry" />
        </mxCell>
        <mxCell id="CHRsbbl_XghZ6bLJ6CwO-19" style="edgeStyle=orthogonalEdgeStyle;rounded=0;orthogonalLoop=1;jettySize=auto;html=1;exitX=1;exitY=0.5;exitDx=0;exitDy=0;" edge="1" parent="1" source="CHRsbbl_XghZ6bLJ6CwO-9" target="CHRsbbl_XghZ6bLJ6CwO-17">
          <mxGeometry relative="1" as="geometry" />
        </mxCell>
        <mxCell id="CHRsbbl_XghZ6bLJ6CwO-9" value="server" style="rounded=1;whiteSpace=wrap;html=1;" vertex="1" parent="1">
          <mxGeometry x="160" y="205" width="40" height="60" as="geometry" />
        </mxCell>
        <mxCell id="CHRsbbl_XghZ6bLJ6CwO-12" style="edgeStyle=orthogonalEdgeStyle;rounded=0;orthogonalLoop=1;jettySize=auto;html=1;exitX=1;exitY=0.5;exitDx=0;exitDy=0;entryX=0;entryY=0.338;entryDx=0;entryDy=0;entryPerimeter=0;" edge="1" parent="1" source="CHRsbbl_XghZ6bLJ6CwO-1" target="CHRsbbl_XghZ6bLJ6CwO-5">
          <mxGeometry relative="1" as="geometry" />
        </mxCell>
        <mxCell id="CHRsbbl_XghZ6bLJ6CwO-15" value="" style="edgeStyle=orthogonalEdgeStyle;rounded=0;orthogonalLoop=1;jettySize=auto;html=1;" edge="1" parent="1" source="CHRsbbl_XghZ6bLJ6CwO-14" target="CHRsbbl_XghZ6bLJ6CwO-9">
          <mxGeometry relative="1" as="geometry" />
        </mxCell>
        <mxCell id="CHRsbbl_XghZ6bLJ6CwO-16" style="edgeStyle=orthogonalEdgeStyle;rounded=0;orthogonalLoop=1;jettySize=auto;html=1;entryX=0;entryY=0.5;entryDx=0;entryDy=0;" edge="1" parent="1" source="CHRsbbl_XghZ6bLJ6CwO-14" target="CHRsbbl_XghZ6bLJ6CwO-1">
          <mxGeometry relative="1" as="geometry" />
        </mxCell>
        <mxCell id="CHRsbbl_XghZ6bLJ6CwO-14" value="Actor" style="shape=umlActor;verticalLabelPosition=bottom;verticalAlign=top;html=1;" vertex="1" parent="1">
          <mxGeometry x="70" y="152.5" width="30" height="55" as="geometry" />
        </mxCell>
        <mxCell id="CHRsbbl_XghZ6bLJ6CwO-23" style="edgeStyle=orthogonalEdgeStyle;rounded=0;orthogonalLoop=1;jettySize=auto;html=1;exitX=1;exitY=0.5;exitDx=0;exitDy=0;entryX=0;entryY=0.75;entryDx=0;entryDy=0;" edge="1" parent="1" source="CHRsbbl_XghZ6bLJ6CwO-17" target="CHRsbbl_XghZ6bLJ6CwO-5">
          <mxGeometry relative="1" as="geometry" />
        </mxCell>
        <mxCell id="CHRsbbl_XghZ6bLJ6CwO-17" value="API" style="shape=document;whiteSpace=wrap;html=1;boundedLbl=1;size=0.2857142857142857;" vertex="1" parent="1">
          <mxGeometry x="250" y="217.5" width="50" height="35" as="geometry" />
        </mxCell>
        <mxCell id="CHRsbbl_XghZ6bLJ6CwO-52" value="diy-database" style="swimlane;whiteSpace=wrap;html=1;fillColor=#dae8fc;strokeColor=#6c8ebf;" vertex="1" parent="1">
          <mxGeometry x="230" y="40" width="340" height="300" as="geometry">
            <mxRectangle x="230" y="40" width="110" height="30" as="alternateBounds" />
          </mxGeometry>
        </mxCell>
        <mxCell id="CHRsbbl_XghZ6bLJ6CwO-55" value="&lt;div align=&quot;left&quot;&gt;&lt;font&gt;Btree-Node:&amp;nbsp;&lt;br&gt;&lt;br&gt;Block: (4KB) {&amp;nbsp;&lt;br&gt;&lt;span style=&quot;white-space: pre;&quot;&gt;&#x9;&lt;/span&gt;Key: 32B (32 chars)&lt;br&gt;&lt;span style=&quot;white-space: pre;&quot;&gt;&#x9;&lt;/span&gt;METADATA: (64 bytes) {&lt;br&gt;&lt;span style=&quot;white-space: pre;&quot;&gt;&#x9;&lt;/span&gt;&lt;span style=&quot;white-space: pre;&quot;&gt;&#x9;1. parent_block_pointer&lt;br&gt;&lt;span style=&quot;white-space: pre;&quot;&gt;&#x9;&lt;/span&gt;&lt;span style=&quot;white-space: pre;&quot;&gt;&#x9;&lt;/span&gt;2. prev_block_pointer&lt;br&gt;&lt;span style=&quot;white-space: pre;&quot;&gt;&#x9;&lt;/span&gt;&lt;span style=&quot;white-space: pre;&quot;&gt;&#x9;&lt;/span&gt;3. prev_pointer&lt;/span&gt;&lt;br&gt;&lt;span style=&quot;white-space: pre;&quot;&gt;&#x9;&lt;/span&gt;}&lt;/font&gt;&lt;/div&gt;&lt;div align=&quot;left&quot;&gt;&lt;font&gt;&lt;span style=&quot;white-space: pre;&quot;&gt;&#x9;&lt;/span&gt;Payload: ()&lt;/font&gt;&lt;/div&gt;&lt;div align=&quot;left&quot;&gt;&lt;font&gt;}&lt;/font&gt;&lt;/div&gt;&lt;div align=&quot;left&quot;&gt;&lt;font&gt;&lt;br&gt;Data-Node:&amp;nbsp;&lt;br&gt;Block: (4KB) {&lt;br&gt;&lt;span style=&quot;white-space: pre;&quot;&gt;&#x9;1. &lt;/span&gt;next_linked_pointer&amp;nbsp;&lt;br&gt;&lt;span style=&quot;white-space: pre;&quot;&gt;&#x9;2. payload&lt;span style=&quot;white-space: pre;&quot;&gt;&#x9;&lt;/span&gt;&lt;/span&gt;&lt;br&gt;}&lt;br&gt;&lt;br&gt;&lt;/font&gt;&lt;/div&gt;" style="shape=note;whiteSpace=wrap;html=1;backgroundOutline=1;darkOpacity=0.05;fillColor=#fff2cc;strokeColor=#d6b656;fontSize=6;" vertex="1" parent="1">
          <mxGeometry x="45" y="405" width="125" height="185" as="geometry" />
        </mxCell>
      </root>
    </mxGraphModel>
  </diagram>
</mxfile>
